<svg width="521.88025" height="728.57776" xmlns="http://www.w3.org/2000/svg">
 <metadata id="metadata7">image/svg+xml2006-07-28Patricia FIDIPublic DomainInkscape.orgopenclipart.orgEN, DEDeutschlandGermanyAllemagneGermaniamapMap of Germany with länder.</metadata>

 <g>
  <title>background</title>
  <rect fill="none" id="canvas_background" height="402" width="582" y="-1" x="-1"/>
 </g>
 <g>
  <title>Layer 1</title>
  <g display="inline" id="layer1">
   <path fill="#000000" fill-rule="nonzero" stroke-width="2" stroke="rgba(255,255,255,0.3)" marker-start="none" marker-mid="none" marker-end="none" stroke-miterlimit="4" stroke-dashoffset="0" id="path1891" d="m163,1c-0.41227,0.05366 -0.70018,0.9223 -1.46875,0.8125c-0.37541,-0.05363 -1.59528,4.11023 -1.78125,4.59375c-0.54392,1.41419 -1.54381,2.8095 -2.125,3.875c-0.94664,1.7355 -1.72729,1.96664 -2.8125,3.1875c-0.72185,0.81208 -1.64379,1.41789 -2.46875,2.125c-0.05985,0.0513 -0.01264,-0.00596 -0.71875,1.40625c-0.74766,1.49533 -1.55544,3.35971 -2.125,4.59375c-0.74419,1.61241 -0.87118,3.096 -1.40625,4.96875c-0.41709,1.45981 -0.52404,3.57455 -0.71875,4.9375c-0.20228,1.41596 -0.68199,2.94487 -1.0625,4.59375c-0.68134,2.95247 2.06824,0.87746 2.5,1.0625c0.34083,0.14607 2.0875,-4.58022 2.09375,-4.59375c0.46868,-1.01549 0.53533,-3.40147 0.71875,-4.59375c0.17236,-1.12034 0.53684,-3.15853 0.71875,-4.25c0.27939,-1.67634 1.74855,-2.74324 2.46875,-3.875c1.97955,-3.11072 0.93235,0.28995 2.125,0.6875c0.4148,0.13827 2.84132,1.16153 3.53125,1.4375c1.86973,0.74789 0.52475,-2.45517 0.6875,-3.1875c0.42824,-1.92712 -0.9505,-3.37362 -1.40625,-4.96875c-0.00898,-0.03141 -0.02264,-0.034 -0.03125,-0.0625c0.01175,-0.59446 0.03125,-1.13133 0.03125,-2.03125c1.10513,-0.92094 1.64379,-2.38399 2.46875,-3.5625c0.66965,-0.95664 2.80248,-1.93674 3.5625,-2.46875c1.07943,-0.7556 -1.19199,-2.35274 -1.78125,-3.53125c-0.46545,-0.93091 -0.75264,-1.18845 -1,-1.15625zm5.0625,24.90625c-2.70886,-0.05267 -0.37125,5.07502 -0.375,5.09375c-0.4313,2.1565 3.36631,5.04946 4,6c1.3516,2.0274 0.63377,4.43637 1,7c0.38161,2.6713 0,5.02693 0,7c0,2.36141 2.61623,2.32553 4.5,4c1.74422,1.55042 3.80689,2.42257 5.5,3.5c1.78496,1.13589 0.72832,5.09823 1,7c0.495,3.46499 -1.79156,3.58312 -3,6c-0.84492,1.68984 -4.61593,1.53864 -6,2c-2.16302,0.72101 -4.491,2.07277 -6.5,3c-2.33517,1.07777 -2.75305,3.09718 -4,4.5c-1.4006,1.57568 1.33333,4 2,6c0.49372,1.48116 5.30902,-1.76967 6,-2c2.03324,-0.67775 4.05928,-2.58318 5.5,-3.5c0.8553,-0.54428 2,0.33333 3,0.5c2.00675,0.33446 -2.33333,3.33333 -3.5,5c-1.64781,2.35402 -2.21422,3.47949 -3.5,5.5c-1.38801,2.18116 2.3778,3.1704 3,4c0.65186,0.86915 4.52919,0.41174 5.5,0.5c1.52626,0.13875 3.25536,3.25536 4,4c2.41325,2.41325 0.31811,3.81726 0.5,6c0.15288,1.83453 -3.66667,-0.33333 -5.5,-0.5c-5.60096,-0.50918 0.75398,-0.37699 -3,1.5c-2.07632,1.03816 1.66667,4.33333 2.5,6.5c1.44137,3.74756 2.16226,1.92201 4.5,4c0.56836,0.50521 6.16791,1.89782 6.5,2c2.61014,0.80312 3.89008,1.49618 6.5,2.5c2.60183,1.0007 4.22295,2.8153 6,4c1.87799,1.25199 2.97315,3.71643 4,5c1.34059,1.67573 1.62356,3.57183 2.5,5.5l2.5,5.5c0.92372,2.03219 2.21757,3.48475 3.5,5.5c0.3861,0.60672 0.85487,1.16874 1.34375,1.71875c-0.62601,-0.31257 -1.27623,-0.59954 -1.78125,-0.875c-1.20006,-0.65458 -1.78994,-1.82119 -2.5,-2.53125c-0.56966,-0.56966 -1.08663,-1.40718 -1.90625,-2.5c-1.11001,-1.48002 -1.81534,-2.52734 -2.5,-3.46875c-0.76487,-1.05169 -2.29625,-2.06975 -3.15625,-2.84375c-0.95216,-0.85694 -2.10681,-1.4529 -3.15625,-2.1875c-0.7019,-0.49133 -1.61058,-2.56217 -2.1875,-3.46875l-2.21875,-3.46875c-0.73861,-1.16067 -1.26137,-1.08117 -2.1875,-1.875c-1.06557,-0.91334 -2.49419,-1.01642 -3.15625,-1.28125c-1.90713,-0.76285 -2.03656,-0.16711 -3.78125,-0.3125c-1.54639,-0.12886 -2.21642,0.39545 -3.78125,0.65625c-1.29361,0.21561 -2.66675,0.81093 -4.09375,1.25c-1.85032,0.56933 -2.71854,-0.17915 -4.71875,-0.3125c-1.81304,-0.12087 -2.22893,-0.70746 -4.09375,-1.28125c-1.09847,-0.33799 -2.03019,-2.28396 -2.5,-2.8125c-1.39971,-1.57467 -0.66857,-0.77479 -1.90625,-2.21875c-1.34094,-1.56442 -1.92656,-0.63177 -3.78125,-1.25c-0.95509,-0.31836 -2.83957,1.40416 -3.78125,1.875c-2.19624,1.09812 -0.93525,1.74588 -1.875,3.46875c-0.40668,0.74559 -1.10613,4.17924 -1.25,4.71875c-0.06925,0.2597 -2.11029,2.63004 -2.53125,3.15625c-0.98927,1.23658 -0.40242,2.84817 -0.625,4.40625c-0.15223,1.06563 -0.48201,2.98633 0,4.71875c1.64005,5.89459 -0.90084,6.63463 -0.96875,7.875c-1.85813,-0.6568 -4.65557,-2.68665 -5.03125,-3.15625c-0.6804,-0.8505 -1.44691,-2.06702 -2.1875,-3.125c-0.98176,-1.40252 -3.5459,1.35179 -4.09375,1.5625c-1.18187,0.45456 -0.47928,3.38623 -0.625,4.40625c-0.16162,1.13131 1.537,3.10525 1.875,3.78125c0.60487,1.20973 0.20714,3.34545 0.3125,5.03125c0.11961,1.91368 -1.04201,2.94888 -1.5625,4.40625c-0.54805,1.53455 -2.22469,1.56665 -3.15625,2.21875c-1.3188,0.92316 -1.35018,-0.61744 -2.84375,-1.28125c-0.27169,-0.12075 -1.70395,-2.83992 -1.875,-3.125l-1.875,-3.15625c-0.45194,-0.75324 -1.98185,-2.22568 -2.53125,-2.84375c-1.126,-1.26674 1.46673,-3.25805 1.5625,-3.46875c0.59066,-1.29944 2.31438,-1.66045 3.46875,-2.5c0.96769,-0.70377 -1.45289,-1.89926 -2.1875,-2.84375c-1.0828,-1.39218 -1.45918,-2.27514 -2.21875,-3.46875c-0.62231,-0.97792 -0.20756,-2.31437 -0.3125,-3.46875c-0.16119,-1.77308 -2.1937,-2.16245 -2.84375,-2.8125c-0.6393,-0.6393 -2.82666,-0.21503 -4.09375,-0.3125c-1.0875,-0.08365 -2.64874,0 -4.09375,0c-1.63594,0 -2.24609,0.34074 -4.09375,0.625c-0.86589,0.13321 -3.32979,-1.44491 -4.40625,-1.90625c-1.22005,0.12592 -2.99644,1.51385 -4.40625,2.21875c-0.98395,0.49198 -2.39486,1.30629 -3.4375,1.875c-1.93506,1.05549 -2.01645,-0.19852 -3.15625,-0.3125c-0.99954,-0.09995 -2.25013,-1.55321 -3.15625,-2.1875c-1.37168,-0.96018 -2.13577,0 -3.15625,0c-1.34526,0 -3.29035,0.81478 -3.78125,0.9375c-1.90236,0.47559 -2.54492,1.15678 -3.4375,1.5625c-1.19708,0.54413 -1.27659,2.31438 -1.90625,3.46875c-0.10383,0.19034 -3.4064,0.56253 -3.78125,0.625c-1.38697,0.23117 -0.69371,1.14118 -1.5625,2.53125c-0.216,0.3456 1.77997,2.7012 1.875,2.84375c1.43778,2.15666 -0.1641,1.64103 -0.3125,3.125c-0.11204,1.12042 -2.27745,0.71449 -3.125,0.96875c-1.28044,0.38413 -1.95664,0.77016 -3.15625,1.25c-1.36742,0.54697 -0.59342,2.40492 -0.9375,3.78125c-0.25319,1.01273 -0.2695,2.89018 -0.34375,3.78125c-0.12956,1.55472 2.29341,0.61695 3.46875,0.9375c1.74023,0.47461 2.066,0.15652 4.09375,0.3125c1.40331,0.10795 3.61799,0.55181 4.09375,0.625c1.89365,0.29133 2.28069,0.69214 4.09375,1.25c2.01689,0.62058 2.10083,1.23851 3.78125,2.21875c1.49211,0.8704 1.18753,1.68308 2.21875,3.15625c0.74988,1.07126 0.80456,2.68186 0.9375,3.125c0.51886,1.72951 -1.85005,0.7133 -2.53125,0.96875c-1.45214,0.54455 -3.06613,-1.43197 -4.09375,-1.90625c-1.2223,-0.56414 -1.05856,-2.11711 -1.5625,-3.125c-1.22882,-2.45763 -1.22222,0 -1.5625,0c-0.58991,0 -0.30633,3.88231 -0.34375,4.40625c-0.09783,1.36957 -0.38833,2.55538 -0.625,4.09375c-0.20426,1.32767 -0.61074,2.64655 -0.9375,4.0625c-0.37715,1.6343 -0.56476,2.29025 -0.9375,3.78125c-0.35755,1.43018 -0.39181,2.77395 -0.625,4.40625c-0.175,1.225 0.68396,2.76712 0.9375,3.78125c0.48314,1.93259 0.62226,2.10548 0.9375,3.15625c0.48253,1.60846 -0.14101,1.44134 -0.3125,3.15625c-0.10159,1.01582 -2.38209,2.05698 -2.53125,2.1875c-1.11235,0.97331 -2.10908,2.14034 -2.8125,2.84375c-0.94035,0.94035 -1.80166,3.277 -1.90625,3.46875c-0.85181,1.56166 -0.85639,3.17136 -0.9375,3.46875c-0.36729,1.34672 -0.61989,2.71744 -0.9375,4.09375c-0.29841,1.29311 -0.48664,3.43774 -0.625,4.40625c-0.22292,1.56042 -1.119,2.39304 -1.59375,3.4375c-1.00468,2.21028 -0.14806,0.69751 -0.625,2.84375c-0.44554,2.00489 0,1.29774 0,3.15625c0,1.54404 -0.77613,0.4435 -2.1875,1.25c-0.58806,0.33603 -2.26343,-0.40585 -3.46875,-0.625c-0.77029,-0.14005 -2.55938,-0.84271 -3.78125,-1.25c-1.59978,-0.53326 -2.30993,-0.18989 -3.78125,-0.3125c-2.05529,-0.17128 -2.49797,0 -3.78125,0c-2.80258,0 0.19728,1.57818 0.3125,2.5c0.12886,1.03087 1.48414,1.48415 2.21875,2.21875c1.22365,1.22365 -0.87163,2.4282 -1.25,3.46875c-0.49729,1.36753 -1.35112,2.29389 -2.21875,3.78125c-0.70462,1.20792 0,1.83167 0,3.4375c0,1.21384 2.05908,1.60846 2.84375,2.21875c1.4629,1.13782 3.13275,-0.23857 4.09375,-0.3125c0.83797,-0.06446 2.73046,-1.52059 3.4375,-1.90625c1.64333,-0.89636 2.43074,2.43074 2.53125,2.53125c0.30596,0.30596 -0.20755,0.83023 -0.3125,1.25c-0.04896,0.19584 0.02961,-0.05921 -0.3125,0.625c-0.44713,0.89427 0.46898,1.59451 0.9375,3.15625c0.41016,1.36717 1.22111,2.41096 1.59375,3.15625c0.56955,1.1391 2.436,1.32873 3.4375,1.875c0.02074,0.01131 0.04173,0.02038 0.0625,0.03125l0,1.15625c-0.08558,0.69332 -0.37998,2.84983 -0.5,3.75c-0.15491,1.16182 -0.35619,2.49332 -0.5,3.5c-0.19382,1.35671 -0.7478,1.94427 -1.25,3.25c-0.3974,1.03324 -2.02731,1.29011 -2.75,1.75c-0.79777,0.50767 -1.69798,0.15436 -2.75,0.25c-1.11042,0.10095 -2.06306,1.20345 -3,1.75c-1.0426,0.60818 -1.47492,1.6388 -2.25,2.5c-0.82667,0.91852 -1.25116,1.96612 -1.75,2.75c-0.74894,1.1769 -1.49466,1.82681 -2.25,2.75c-0.57927,0.708 -2.51983,0.77533 -3.25,1c-1.37033,0.42164 -1.00175,0.55653 -2.25,1.25c-0.55405,0.3078 2.08448,2.31609 2.25,2.5c0.715,0.79444 1.21057,1.55645 1.75,2.25c0.68674,0.88295 -0.17547,2.10566 -0.25,3c-0.0822,0.98646 -0.73085,2.19254 -1,3c-0.40359,1.21078 -1.28847,1.93271 -2,3c-0.53882,0.80823 -1.1207,1.79311 -1.25,2c-0.60037,0.96059 -2.69842,0.41514 -3.25,0.5c-0.19597,0.03015 -2.04852,-1.63882 -2.5,-2c-1.35927,-1.08741 -2.24179,0.51734 -3.25,0.75c-0.65369,0.15085 -1.95295,2.16994 -2.25,2.5c-1.17797,1.30885 -1.90872,0.47718 -3,0.75c-0.92178,0.23044 -1.83333,-0.5 -2.75,-0.75c-1.45079,-0.39567 -1.17198,2.57835 -1.25,2.75c-0.71881,1.58137 -1.25032,1.78616 -1.75,2.5c-0.55261,0.78945 -2.84947,-1.09595 -3.25,-1.25c-0.99824,-0.38394 -1.56375,-2.15016 -2,-2.75c-0.77497,-1.06559 -1.39827,-0.97879 -2.5,-1.75c-0.91113,-0.63779 -2.59397,-0.99768 -3.25,-1.25c-1.6198,-0.623 -1.26035,1.62045 -1.75,2.25c-0.32863,0.42253 -1.0172,1.16251 -1.75,2c-0.91523,1.04598 -2.65197,0.1768 -3.75,0.25c-0.7498,0.04999 -1.35262,0 -2.75,0c-1.36151,0 -1.72069,0.57356 -3,1c-0.95029,0.31676 0.23048,2.99619 0.25,3.25c0.05386,0.70019 1.65452,2.06815 2,2.5c0.74779,0.93474 1.25676,1.79537 1.75,2.5c0.57933,0.82761 1.2664,1.2664 2,2c0.85557,0.85557 0.71206,2.31421 1,3.25c0.56596,1.83937 -0.45907,1.98929 -0.75,3.25c-0.30041,1.30177 -0.48418,2.58231 -0.75,4c-0.19689,1.05007 0.74053,2.03646 1,2.75c0.5534,1.52186 1.40132,1.55703 2.25,2.5c0.78059,0.86732 1.97873,0.65957 3,1c1.76368,0.58789 0.92774,1.04371 2,2.25c0.79645,0.896 -0.92322,2.76966 -1,3c-0.34452,1.03355 -0.93848,2.18978 -1.5,3.5c-0.52513,1.2253 0,1.01536 0,2.5l0,3c0,1.57361 -0.9241,1.38615 -1.5,2.25c-0.50981,0.76472 -0.96794,1.10622 -1.75,2c-0.76235,0.87126 -1.56924,1.56924 -2.25,2.25c-0.56327,0.56328 -1.225,1.57499 -1.75,2.25l-1.75,2.25c-1.3663,1.75667 0.82835,2.07088 1,2.5c0.31562,0.78905 1.66667,0.33333 2.5,0.5c1.16167,0.23233 1.01969,1.86943 1.5,2.75c0.58682,1.07584 0.12913,1.42043 0.25,2.75c0.07659,0.84252 -1.2526,2.50521 -1.5,3c-0.55907,1.11814 -1.25379,1.56723 -2,2.5c-0.7793,0.97412 -2.07505,0.15962 -3.25,0.25c-0.66656,0.05127 -2.08684,0 -3.25,0c-1.6848,0 -1.13407,1.78211 -1.75,2.75c-0.72552,1.14011 1.01868,2.64856 1.25,3.25c0.4116,1.07016 1.55244,2.24241 2.25,3.25c0.7481,1.08058 0.54555,2.54588 0.75,3.5l0.75,3.5c0.41355,1.92989 -0.64035,1.2807 -1.25,2.5c-0.23849,0.47699 -1.16623,0.99962 -1.75,1.5c-0.61642,0.52836 0.18976,2.65667 0.25,3.5c0.10825,1.51543 0.65713,2.13567 1,3.25c0.3175,1.03187 1.40893,0.88058 2,1.25c0.78987,0.49367 0.92911,2.04405 1.25,2.75c0.28902,0.63584 0.4011,2.60717 0.5,3.25c0.22979,1.49364 0.45485,2.12264 0.75,3.5c0.33833,1.57889 1.46952,0.8164 2.25,1.25c1.00985,0.56103 1.86241,1.11745 2.5,1.5c0.49166,0.295 -0.22599,3.3898 -0.25,3.75c-0.03724,0.55865 -1.69489,1.48303 -2,1.75c-1.21458,1.06276 -0.46951,1.87803 -0.75,3c-0.13123,0.52491 0.59156,2.36624 0.75,3c0.55091,2.20363 1.21671,1.0429 1.75,1.5c0.8547,0.7326 2.90657,-0.67075 3.25,-0.75c1.48747,-0.34326 1.96372,0.8926 2.75,1.25c0.87805,0.39911 0.35547,2.31053 0.5,3.25c0.12807,0.83246 -0.68209,2.72837 -0.75,3c-0.15114,0.60454 0.21314,2.34448 0.25,2.75c0.09172,1.00893 0.87857,1.75714 1.25,2.5c0.49951,0.99901 1.24009,1.77156 1.75,2.5c0.25663,0.36661 0.54121,0.85548 1,1.15625c-0.14922,-0.0559 -0.26795,-0.10468 -0.5,-0.15625c-1.77884,-0.3953 -0.41595,0.15598 -2,0.75c-1.01735,0.38151 -1.16667,1.83333 -1.75,2.75c-0.5002,0.78604 -1.83333,-0.33333 -2.75,-0.5c-1.06623,-0.19386 -0.17451,0.0698 -1.25,0.5c-1.05453,0.42181 -0.65823,0.98735 -1.5,2.25c-0.33133,0.497 -0.88154,1.58677 -1.25,2.25c-0.53314,0.95966 -1.53487,1.19379 -2.25,1.75c-1.2321,0.9583 -0.84228,1.82495 -1.5,3.25c-0.61542,1.3334 -1.09543,1.36929 -2,2.5c-0.18142,0.22677 -2.04403,1.36269 -2.25,1.5c-0.68197,0.45465 0.94502,2.83506 1,3c0.33825,1.01475 -0.79431,2.18434 -1,2.75c-0.41614,1.14437 -0.62712,2.19491 -1,3.5c-0.42408,1.48429 0.19178,2.3014 0.25,3c0.11652,1.39828 0.71964,2.15893 1,3c0.24861,0.74582 1.33333,0.83333 2,1.25c1.33293,0.83308 0.80759,0.70664 2,1.75c0.63027,0.55149 0.16667,1.66667 0.25,2.5c0.0793,0.79301 2.06967,1.8627 2.5,2.25c1.00008,0.90007 0.88635,1.47725 1.5,2.5c0.53803,0.89672 1.00011,1.50017 1.5,2.25c0.65771,0.98657 2.10823,1.05411 3,1.5c0.87135,0.43567 2.78845,0.37179 3.75,0.5c0.424,0.05653 1.31391,2.40883 1.5,2.75c0.51097,0.93678 0.17521,2.62818 0.25,3.75c0.08516,1.27733 0,2.6457 0,3.5c0,0.65244 -1.20126,2.00209 -1.5,2.5c-0.56955,0.94926 -1.57256,1.74729 -2.25,2.5c-0.88187,0.97986 -1.14703,1.91171 -1.5,2.5c-0.48448,0.80746 0.34658,2.07948 0.5,3c0.24648,1.47886 0.34803,1.04409 0.75,2.25c0.16112,0.48336 2.26522,0.94384 3,1.25l0.875,0.375c-1.29511,-0.31961 -2.68086,-0.46742 -4.25,-0.78125c-1.8609,-0.37218 -1.8352,0.65314 -3.90625,1.40625c-2.32342,0.84488 -0.97818,2.10898 -2.125,4.59375c-0.58936,1.27694 2.7218,2.42979 3.1875,2.84375c0.77969,0.69305 4.78743,0.30874 5.3125,0.34375c2.38368,0.15891 2.50243,1.5953 3.875,2.46875c1.08947,0.6933 0,4.44861 0,4.9375c0,2.12272 0.27616,3.30883 0.375,4.59375c0.10268,1.33488 1.9028,2.1641 2.8125,3.1875c1.2101,1.36136 2.10925,2.81233 3.1875,4.25c1.05274,1.40365 1.54774,3.59057 2.125,4.9375c0.59059,1.37805 1.24213,2.78893 1.75,3.90625c1.12078,2.46572 3.05084,-0.26599 3.90625,-0.34375c1.25955,-0.11451 2.35483,-3.56349 2.8125,-4.25c1.55074,-2.32611 1.76643,-0.16414 3.5625,-0.34375c0.34169,-0.03417 1.82679,4.01533 2.09375,4.59375c0.58187,1.26072 1.1988,3.81795 1.4375,4.59375c0.71502,2.3238 2.1846,-0.29652 2.8125,-0.375c1.26491,-0.15812 1.41789,-2.09559 2.125,-3.15625c0.83205,-1.24808 2.12684,2.09559 3.1875,3.15625c1.36295,1.36294 2.24144,1.03873 3.875,1.78125c1.89529,0.8615 4.35076,0.67475 5.53125,0.28125c1.66104,-0.55368 1.63505,-2.2465 2.25,-3.125c0.62309,-0.89013 -1.5143,-4.22059 -1.75,-5.28125c-0.07943,-0.35743 0.03354,-0.13187 0.34375,-1.0625l0.09375,0.1875c-0.03603,-0.10342 -0.04684,-0.1858 -0.0625,-0.28125l0.34375,0c-0.00997,0.04309 -0.02223,0.07992 -0.03125,0.125c-0.02857,0.14285 -0.05803,0.29017 -0.0625,0.4375l-0.1875,-0.28125c0.04516,0.12963 0.10713,0.26739 0.1875,0.40625c0.0137,0.99693 0.56161,2.08528 1.3125,3.125c0.15676,0.21706 0.27326,0.34733 0.40625,0.5c0.36933,0.5787 0.7856,1.01772 1.1875,1.0625l-0.0625,-0.125c0.22228,0.14306 0.44853,0.32231 0.71875,0.5625c0.67098,0.59642 2.41496,0.80499 3,1c1.1808,0.3936 0.90127,1.50212 1.5,2.5c0.39052,0.65086 0.67428,1.85426 1,2.75c0.41731,1.14761 1.24601,1.95802 1.75,2.75c0.53984,0.84832 1.55788,1.09052 2.5,1.75c1.2074,0.84518 2.22613,0.92755 3,1.25c0.76066,0.31694 2.28489,0.68547 2.5,0.75c0.936,0.2808 3.06709,0 3.5,0c1.11139,0 2.55222,0.3403 3.75,0.5c0.37124,0.0495 2.3687,-1.72269 2.75,-2c1.31022,-0.95289 2.53046,-0.72299 3.5,-1c1.52918,-0.43691 1.83863,0.66859 2.75,1c0.8161,0.29676 1.84903,1.29432 2.5,1.75c0.72234,0.50564 1.92902,1.05219 2.75,1.5c1.09259,0.59596 1.60732,0.96439 2.5,1.5c1.29718,0.77831 1.39767,0.25412 2.75,0.5c1.32649,0.24118 1.94873,1.06294 2.75,1.5c1.00809,0.54987 1.23307,1.54134 2,2.5c0.68648,0.8581 1.68728,1.25686 2.59375,1.5625l0,0.8125l1.15625,0c-0.43486,0.59363 -0.93546,1.30579 -1.28125,1.78125c-1.19116,1.63786 -1.3996,2.1949 -2.46875,3.875c-0.82419,1.29516 -0.69341,2.99436 -1.0625,4.59375c-0.18938,0.82063 -0.48016,2.81846 -0.71875,4.25c-0.39368,2.36209 -1.55924,2.69083 -2.46875,4.25c-0.60671,1.04007 -3.05143,0.70658 -4.59375,1.0625c-1.82947,0.42218 -2.29883,1.60606 -3.53125,2.46875c-1.31164,0.91815 -2.50185,3.03698 -3.1875,3.875c-0.73314,0.89605 -2.86634,2.36223 -3.875,3.1875c-1.1384,0.93142 -1.35244,2.24366 -2.125,3.53125c-0.80682,1.34471 -1.27912,2.55825 -2.125,4.25c-0.81663,1.63326 -0.65167,3.0203 -1.0625,4.9375c-0.41972,1.95871 -1.20666,2.41332 -2.125,4.25l-2.125,4.25c-0.88235,1.7647 -1.02056,2.49936 -1.75,4.25c-0.06198,0.14876 -0.33167,4.33087 -0.375,4.9375c-0.08626,1.20759 -2.12447,3.95437 -2.46875,4.59375c-0.88477,1.64315 -0.92046,2.31677 -1.40625,3.53125c-0.28882,0.72206 -1.37597,2.45799 -1.78125,3.1875c-0.94721,1.70498 -1.06699,2.40361 -1.75,3.90625c-0.79482,1.7486 -0.80769,3.7484 -1.0625,4.9375c-0.40112,1.87191 -0.24439,2.89575 -0.375,4.59375c-0.13968,1.81572 0,2.7308 0,4.25c0,2.29916 -0.73828,3.07808 -1.03125,4.25c-0.42347,1.69387 -0.97265,2.11034 -1.4375,3.15625c-0.36059,0.81133 -2.74307,1.03646 -2.8125,1.0625c-1.49208,0.55953 -0.66647,0.78726 -1.78125,2.125c-1.0041,1.20492 0,4.52637 0,5.65625c0,1.9236 0.7108,3.554 1.0625,5.3125c0.3216,1.60801 0.87408,4.0582 1.0625,4.9375c0.46739,2.18118 2.05458,1.72257 2.125,1.78125c0.63537,0.52948 3.67839,-1.00888 3.875,-1.0625c0.45479,-0.12404 0.96609,0 1.4375,0l0.34375,0c1.83746,0 1.52548,2.80713 2.125,3.90625c0.7435,1.36308 0.76248,3.29367 1.0625,4.59375c0.71572,3.10146 1.20729,0.52188 2.46875,1.0625c1.04957,0.44982 3.42291,-3.15151 3.875,-3.5625c1.48704,-1.35185 3.84245,0.70715 3.90625,0.71875c1.31766,0.23958 3.29487,0.48409 4.9375,0.71875c0.98986,0.14141 2.97961,0 4.59375,0c1.97277,0 2.39792,-2.39792 3.53125,-3.53125c1.53864,-1.53865 2.32943,-2.07774 3.5625,-3.1875c0.19328,-0.17395 3.33316,1.65096 3.53125,1.75c1.51933,0.75967 1.80609,2.0553 2.8125,3.1875c1.25262,1.4092 1.97819,1.52817 3.1875,2.46875c0.91074,0.70835 4.65022,0 4.9375,0l4.96875,0c1.34371,0 -0.70895,-2.57864 -1.0625,-3.875c-0.40431,-1.48245 -3.06168,-0.2259 -4.59375,-0.34375c-0.78399,-0.06031 -1.81164,-2.71746 -2.125,-3.1875c-0.49182,-0.73773 0.98617,-2.48105 1.40625,-3.53125c0.38657,-0.96642 2.57204,-2.29668 3.1875,-2.84375c1.17997,-1.04887 1.69999,-2.43302 2.46875,-3.53125c0.91753,-1.31075 1.87425,-2.09682 2.84375,-3.1875c1.51331,-1.70248 1.77738,0.53634 3.53125,1.0625c0.68052,0.20416 2.99713,1.67549 3.1875,1.78125c1.54478,0.85821 3.77123,0.24308 5.28125,0.34375c1.53726,0.10249 2.50535,2.17264 2.84375,2.46875c0.5796,0.50715 -1.8755,3.44884 -2.125,3.90625c-1.04493,1.91571 -1.4001,1.59118 -2.46875,2.8125c-1.43463,1.63957 0.90592,1.81185 1.0625,2.125c0.63683,1.27366 2.57864,-1.19199 3.875,-1.78125c2.12523,-0.96601 0.96679,-1.69023 1.78125,-3.15625c1.65874,-2.98573 1.41084,-0.36834 2.8125,-0.71875c1.6647,-0.41618 3.31884,0.93484 4.96875,1.40625c0.80772,0.23078 3.85891,-1.78584 4.59375,-2.125c1.96394,-0.90644 2.58777,0 4.25,0c1.37852,0 2.6305,2.94709 3.15625,3.53125c1.08102,1.20114 2.29773,2.29774 3.1875,3.1875c2.26516,2.26516 1.04218,-1.04217 1.40625,-1.40625c0.42736,-0.42735 -1.99971,-2.58445 -2.46875,-3.1875c-1.14711,-1.47486 -2.23171,-1.55907 -3.53125,-2.46875c-1.4233,-0.99631 -2.5246,-1.6094 -3.875,-2.46875c-1.49286,-0.95 -1.84754,-1.56574 -2.5,-2.125c-2.73093,-2.3408 1.39508,-2.22587 1.78125,-2.84375c0.49577,-0.79322 4.00677,2.48253 4.59375,2.84375c1.61517,0.99396 2.39361,2.6236 3.53125,3.875c0.91586,1.00745 2.55661,1.81775 3.53125,2.5c1.23151,0.86206 2.6443,1.89471 3.90625,2.8125c0.78595,0.5716 1.86969,-0.48304 2.8125,-0.71875c1.78656,-0.44664 3.19414,1.73658 3.90625,2.125c0.95386,0.52029 1.64379,1.4179 2.46875,2.125c0.0578,0.04955 3.76862,-0.56056 4.59375,-0.6875c1.00741,-0.15499 2.96467,1.7538 3.53125,2.09375c1.1128,0.66768 2.0511,2.81635 2.84375,3.90625c1.25425,1.72459 3.02185,1.84518 4.59375,2.8125c0.88999,0.54769 3.71624,-0.25652 4.9375,-0.34375c1.99443,-0.14246 2.56893,-1.79512 3.53125,-2.46875c0.74212,-0.51948 1.14309,-1.12048 1.53125,-1.78125c0.00251,-0.00428 0.02874,0.00429 0.03125,0l0.96875,0c-0.46191,1.39748 -0.92581,2.90267 -1.0625,3.09375c-1.27404,1.78092 -0.10168,-0.40673 1,4c0.5,2 4,1 6,1.5c2.50243,0.62561 2.51534,2.51534 4,4c1.27127,1.27127 2.91208,2.18406 4,3c1.01903,0.76428 0,3.14196 0,5.5c0.96971,0 5.43367,0.11646 7.5,1c2.76808,0.50329 -0.42061,4.20606 -0.5,5c-0.21665,2.16653 0,3.81491 0,5.5c0,1.33333 2.66667,0 4,0c0.1542,0 2.92871,-4.18388 3.5,-5c1.52509,-2.1787 3.43169,-3.43169 5,-5l1,-1c0.2653,-0.2653 -0.1556,-0.1556 -2,-2c-2.82455,-2.82455 -0.91263,-2.96605 -2,-6.5c-0.42803,-1.3911 1.90707,-4.57698 2.5,-6c0.90614,-2.17475 2.36783,-4.05914 3.5,-6c0.83979,-1.43963 2,2.66667 3,4c1.07703,1.43604 1.33333,3.33333 2,5c0.7245,1.81126 3.66667,-1.33333 5.5,-2c0.79867,-0.29043 1.66667,0.33333 2.5,0.5c0.53481,0.10696 5.39666,-0.44972 6,-0.5c1.93694,-0.16141 3.33333,2 5,3c0.37063,0.22238 3.24803,1.44357 4.5,2c1.85283,0.82348 0.66667,4 1,6c0.27304,1.63826 3.34118,3.34118 4.5,4.5c1.73096,1.73096 3.33939,-1.21432 5.5,-2c4.56452,-1.65983 1.6141,0.16141 5,0.5c2.28503,0.2285 3.0681,-1.22724 5,-2c2.56528,-1.02611 3.27811,-2.08607 5.5,-3.5c2.6678,-1.69769 3.25914,-1.25351 6.5,-2.5c2.46848,-0.94941 6.21007,-0.5292 7.90625,-0.375c1.68751,-1.22728 4.87952,-3.10124 6.59375,-4.625c0.19792,-0.17593 2.83256,-3.64269 4.5,-4c2.23598,-0.47914 5.2413,-1.32413 7,-1.5c1.90962,-0.19096 1.35685,-0.95539 5,-0.5c2.14762,0.26845 6.07445,1.29624 8,1c2.06861,-0.31825 5.44358,0.76069 6.5,-1c0.60167,-1.00278 1.49801,-3.96016 3,-5c0.47804,-0.33095 4.5192,-7.04674 6.5,-4.5c1.48256,1.90615 0.50371,3.41044 3.5,4.5c2.78319,1.01207 3.34818,0.82628 5.5,2c0.67255,0.36684 2.75058,5.24952 5.5,3c1.83333,-1.5 3.25278,-5.24907 5.5,-4.5c1.5,0.5 2.97457,1.91603 4.5,1.5c1.83333,-0.5 5.03911,-3.34355 5.5,-1.5c0.42205,1.68818 1.76022,0.1989 1,4c-0.33333,1.66667 -2.57811,4.36876 -1,5c0.18293,0.07317 4.15385,0.58974 5,2c0.78259,1.30432 1.34721,3.89814 3,5c1.01567,0.67711 2.14256,5.35744 4.5,3c1.73038,-1.73038 3.33098,-1.3027 3.5,-3.5c0.19915,-2.58895 0.39034,-4.96474 0.5,-6.5c0.10123,-1.41721 1.22098,-6.56741 0.5,-7c-0.18712,-0.11227 -4.57005,-2.38579 -5,-3c-0.35279,-0.50398 -5.51549,-2.12072 -3.5,-5c0.57287,-0.81839 3.29344,-4.17376 3.5,-5c0.41502,-1.6601 3.86234,-5.72381 2,-8c-1.76024,-2.15141 -0.56304,-4.84384 -4.5,-5.5c-0.99061,-0.1651 -5.83963,-0.55898 -6,-1c-0.66667,-1.83333 -0.8813,-3.90186 -2,-5.5c-1.16667,-1.66667 -4.28247,-3.12207 -3.5,-5c1.34378,-3.22508 0.54406,-3.48521 2.5,-6c0.25676,-0.33012 3.16603,-4.33302 3.5,-4.5c2.01453,-1.00726 1.69519,-2.2881 4,-2c2.26422,0.28303 3.53807,1.51625 4,0.5c0.95999,-2.11199 0.65283,-4.02226 2.5,-5.5c1.58109,-1.26487 2.95602,-3.68554 5,-4c2.31005,-0.35539 4.75078,0.11314 6.5,-1c2.77855,-1.76817 3.80478,-1.07826 5.5,-3.5c1.55535,-2.22193 2.25286,-2.92143 3.5,-5c1.19419,-1.99031 2.44831,-1.41401 3,-5c0.36286,-2.35858 0.24742,-5.2457 1,-6.5c0.64857,-1.08094 1.25816,-5 3,-5c0.31295,0 4.41064,0.13601 5,0c1.51473,-0.34955 6.01656,-0.04969 6.5,-1.5c0.63982,-1.91947 2.47304,-2.92522 2,-6c-0.41128,-2.6733 -0.50038,-4.335 -1,-6.5c-0.38777,-1.68036 -0.86951,-4.18822 -1.5,-6.5c-1.01503,-3.72179 2.18729,-4.08181 -1.5,-5.5c-2.50157,-0.96214 -4.57927,-1.53963 -6.5,-2.5c-1.60884,-0.80442 -4.32228,-2.02133 -6,-3c-1.44602,-0.84351 -5.41616,-1.45658 -6,-3.5c-0.69099,-2.41848 -0.30689,-4.88362 -2,-7c-1.7491,-2.18638 -1.0015,-4.14328 -4,-5c-2.15569,-0.61591 -5.35896,-0.35896 -7,-2c-1.55065,-1.55065 -3.51384,-2.33045 -4.5,-4.5c-0.74081,-1.62978 -1.09395,-3.7815 -2.5,-5.5c-1.50634,-1.84108 -2.50197,-3.30216 -4.5,-5.5c-0.93144,-1.02458 -2.94763,-5.67103 -5,-5.5c-0.38276,0.0319 -5.2946,0.97027 -6,0.5c-1.48983,-0.99322 -4.85906,-1.90828 -6,-4c-0.96406,-1.76745 -1.34804,-2.66807 -3,-5.5c-1.10046,-1.8865 -2.2071,-3.96829 -3.5,-6c-1.02019,-1.60316 -2.84479,-3.53437 -3.5,-5.5c-0.5614,-1.68419 -0.79473,-4.04144 -2,-6c-1.20516,-1.95839 -2.96247,-4.0791 -4,-6.5c-0.53938,-1.25855 -3.45457,-5.74992 -3,-7c0.5815,-1.59912 1.0299,-3.39812 2,-5.5c0.25171,-0.54537 3.41364,-5.75544 3,-6.5c-0.53894,-0.97009 -1.44397,-2.84053 -2.5,-4.5c-1.46431,-2.30105 -1.40867,-3.40867 -3.5,-5.5c-2.1583,-2.1583 -3.17787,-2.99566 -5,-5c-1.29309,-1.4224 -3.68712,-3.81202 -5,-5.5c-0.91316,-1.17406 -3.5,-2.91988 -3.5,-4.5c0,-0.35333 0.76794,-4.29323 0,-5.5c-0.99606,-1.56523 -1.4314,-3.70721 -3.5,-5.5c-0.12503,-0.10836 -0.24657,-0.25233 -0.375,-0.375l0,-1.53125c2.05454,1.67929 3.26998,2.69621 3.875,3.90625c1.46629,2.93258 3.45235,0.6277 5.5,1l5.5,1c1.86637,0.33934 4.07754,-3.70686 5.5,-5c1.47127,-1.33752 2.74254,-2.74254 4,-4c1.88297,-1.88297 3.58808,-2.93571 5.5,-4.5c2.22331,-1.81907 3.37921,-2.1504 5.5,-3.5c2.96243,-1.88518 4.01069,-0.57296 7,-1c2.08363,-0.29766 4.8574,0.80957 6,1c3.54865,0.59144 3.73377,-2.0366 5.5,-3c0.89059,-0.48577 3.2544,-2.5312 4.5,-3.5c2.22743,-1.73244 2.96283,-2.66655 5,-4.5c2.27937,-2.05143 2.79818,-2.79818 4,-4c1.92512,-1.92512 3.21587,-1.60794 5,-2.5c1.93105,-0.96552 3.40977,-1.5499 5.5,-2.5c0.22362,-0.10165 4.61218,-1.38366 5,-1.5c1.7848,-0.53544 1.66667,-3.33333 2.5,-5c0.5981,-1.1962 5.66406,-1.21373 7,-1.5c2.6184,-0.56109 4.43524,-1.70586 6.5,-2.5c1.31857,-0.50714 4.67991,-1.16998 6,-1.5c3.10391,-0.77598 2.10429,-1.63667 4.5,-3.5c2.19475,-1.70703 2.74282,-1.82855 4.5,-3c0.80102,-0.53401 6.9213,0 7.5,0c1.45611,0 4.4327,-3.98943 5,-4.5c0.84341,-0.75907 4.47837,-2.84987 5.5,-3.5c2.33195,-1.48397 0,-3.37955 0,-5c0,-2.08833 -2,-3.66667 -3,-5.5c-1.08552,-1.99011 4.33333,-1.33333 6.5,-2c1.57955,-0.48601 4.459,1.11475 6,1.5c3.42608,0.85652 2.09208,1.16226 4.5,2.5c1.8996,1.05533 0.33333,4.33333 0.5,6.5c0.07393,0.96109 4.29962,1.07491 6,1.5c0.86399,0.216 -1.5487,4.25893 -2,5.5c-0.80358,2.20983 4.31847,3.53329 5.5,4.5c2.57385,2.10588 3.95834,-1.1875 5,-1.5c1.68931,-0.50679 2.40852,-4.81704 3,-6c1.21572,-2.43145 1.33815,-4.68353 2,-7c0.52492,-1.83722 1.08551,-4.34202 1.5,-6c0.58595,-2.3438 0,-3.38457 0,-6.5l0,-7.5c0,-1.79332 1.34832,-4.04495 2,-6c0.82183,-2.4655 -1.0668,-5.33401 -1.5,-7.5c-0.26032,-1.30159 -2.30853,-4.23231 -3,-5.5c-1.06663,-1.95548 1.65256,-3.30512 2.5,-5c0.05647,-2.97891 -2.56514,-4.82862 -4.5,-8c-0.68024,-0.8314 -5.93549,-0.91315 -6.5,-1c-1.68062,-0.25855 -3.20894,-0.65457 -4.65625,-1.03125l0,-2.34375c1.9037,0.14291 0.95713,-0.7253 2.15625,-1.125c0.31391,-0.10464 0.92066,-5.52394 1,-6c0.34418,-2.06506 -3.43778,-3.0558 -4.5,-4c-2.03405,-1.80805 -0.64468,-1.71915 -1.5,-4c-1.19251,-3.18001 -2.44745,-3.05932 -4,-5c-2.06262,-2.57827 -0.38439,-3.07508 -0.5,-4c-0.07495,-0.59963 2.64523,-4.40872 3,-5c1.22971,-2.04951 0.70047,-4.90332 1,-7c0.19772,-1.38405 1.47905,-4.43715 2,-6c0.38445,-1.15336 -0.74718,-5.23028 -1,-7c-0.12824,-0.89768 0.3429,-4.80057 0.5,-7c0.25705,-3.59874 -0.27598,-3.3118 -0.5,-6c-0.05245,-0.62936 -5.32331,-2.90362 -5.5,-3c-1.11557,-0.60849 -1.96383,-4.32042 -2.5,-5.5c-1.24749,-2.74449 -0.95642,-4.46328 -1.5,-7c-0.32772,-1.52936 2.49824,-3.74736 3,-4.5c1.32445,-1.98667 0.67358,-4.71508 1,-7c0.23396,-1.63772 -3.21737,-4.42389 -4,-5.5c-1.54947,-2.13052 -3.37954,-3.04159 -5,-4.5c-2.12256,-1.91031 -2.56184,-3.52253 -4,-5.5c-1.28886,-1.77219 -4.49109,-2.41828 -6.5,-3.5c-2.25756,-1.21561 -3.99384,-3.3282 -6,-5c-2.05278,-1.71065 -2.88129,-1.60072 -4.5,-2.5c-3.23469,-1.79705 0,-3.00378 0,-6c0,-1.57628 4.2379,-4.2379 5,-5c2.31267,-2.31267 2.18282,-4.36564 3.5,-7c1.00458,-2.00916 2.37214,-3.72765 3.5,-5.5c1.3671,-2.14831 1.64674,-4.28153 2.5,-6.5c1.50965,-3.92508 3.21062,-5.50392 3.5,-6c0.10084,-0.60504 -1.90705,-5.33974 -2.5,-7c-1.31534,-3.68297 -1.67483,-1.87708 -3.15625,-2.15625c0.05418,-0.11344 0.09702,-0.23516 0.15625,-0.34375c0.3217,-0.58978 0.76072,-2.28215 1.5,-4.5c0.39832,-1.19497 -2.05105,-4.92252 -2.5,-6c-0.96384,-2.31322 -0.33348,-5.00216 -0.5,-7.5c-0.0897,-1.34553 -1.72463,-4.74273 -2,-5.5c-0.77605,-2.13413 -0.79375,-4.76248 -1,-6c-0.03236,-0.19414 -0.03551,-0.23631 -0.0625,-0.40625c-0.20362,-0.3484 -0.48783,-0.96958 -0.9375,-2.09375c1.65577,-4.30501 -2.9671,-3.29677 -4.5,-5c-0.69996,-0.77773 -5.17878,1.72626 -6,2c-1.19404,0.39801 -3.19374,-4.10624 -3.5,-4.5c-1.58714,-2.04061 -3.89393,-0.8986 -6.5,-1.5c-2.44785,-0.56489 -1.83936,-3.37215 -3,-5.5c-1.26798,-2.32464 -1.74984,-3.49968 -2.5,-5c-0.74907,-1.49815 -0.33333,-3.33333 -0.5,-5c-0.01946,-0.19465 -3.57622,-5.36433 -4,-6c-0.50493,-0.75739 1.9764,-5.97491 2.40625,-6.90625c1.13215,-2.453 -2.32066,-2.87246 -3.40625,-4.09375c-1.00304,-1.12842 -5.18412,-0.39878 -6.5,-0.5c-1.69467,-0.13036 -3.33333,-0.66667 -5,-1c-1.86339,-0.37268 -2.33333,3 -3.5,4.5c-1.31038,1.68477 -2.66667,-3.33333 -4,-5c-1.28784,-1.6098 -4,-1 -6,-1.5c-0.67728,-0.16932 -4.2541,-2.32042 -5.5,-3c-1.81907,-0.99222 -3.88655,-1.76661 -5.5,-2.5c-2.8021,-1.27368 -0.41877,-2.93139 -0.5,-3.5c-0.17264,-1.20846 0.19451,-1.75063 0.5,-4.5c0.15481,-1.39327 -1.75607,-5.2682 -2,-6c-0.57342,-1.72025 -2.33631,1.6688 -3.5,2.5c-0.98734,0.70525 -2.33333,-0.66667 -3.5,-1c-1.82718,-0.52205 -3,2.33333 -4.5,3.5c-0.57477,0.44704 -5.35439,-2.23099 -6,-2.5c-1.58211,-0.65921 -3.33054,0.60555 -5.5,1c-1.99768,0.36321 -1.69176,2.25569 -3,4c-1.36346,1.81795 -1.54759,4.25587 -2,5.5c-0.76925,2.11543 -2.39339,3.82943 -2.5,4c-0.90945,1.45511 -1.66667,-3 -2.5,-4.5c-0.43345,-0.78021 2.63426,-5.26853 3,-6c0.81769,-1.63537 3.70398,-3.33359 5,-4.5c1.66412,-1.49771 4.33177,-1.33285 6.5,-2c2.43195,-0.74829 4.86012,-1.04145 7,-1.5c2.50496,-0.53678 4.66298,-1.79345 6.5,-2.5c0.93689,-0.36034 -5.01465,0 -6,0c-2.01077,0 -4.63276,0.66182 -7,1c-2.91392,0.41627 -4.03017,-1.67924 -6,-2.5c-3.45952,-1.44147 -2.26705,0.2267 -5,0.5c-2.27242,0.22724 -3.3077,2.94018 -4.5,4c-1.48579,1.32071 -1.06561,4.97285 -1.5,7c-0.14169,0.6612 -4.21789,4.21789 -4.5,4.5l-4,4c-2.30255,2.30255 -2.91343,3.56085 -4.5,5.5c-1.37202,1.67691 0,4.33333 0,6.5c0,1.66667 -3.33333,0 -5,0c-0.12616,0 -2.37663,-5.22858 -2.5,-5.5c-0.88321,-1.94306 -2.66667,3.33333 -4,5c-2.03797,2.54746 -3.2966,0.65932 -5,1c-1.96796,0.39359 -4,-0.33333 -6,-0.5c-1.53128,-0.12761 -3,0.66667 -4.5,1c-3.00843,0.66854 -3.23609,2.05933 -5.5,3.5c-1.0982,0.69886 1.66667,2 2.5,3c2.36602,2.83922 -0.39692,2.38154 -1,6c-0.19838,1.19031 -1.32107,3.63296 -2,5.5c-1.24195,3.41535 -2.05635,2.64388 -3.5,4.5c-0.79917,1.02751 -2,-1.66667 -3,-2.5c-1.28876,-1.07397 -3.12196,-3.12196 -3.5,-3.5c-0.52717,-0.52717 -4.62094,2.10043 -5.5,2.5c-2.16079,0.98218 -0.68168,0 -1.5,0c-3.03629,0 -1.14334,-0.49 -3.5,-1.5c-1.83829,-0.78784 0,-4 0,-6c0,-4.21064 -4.59186,0.41744 -5.5,0.5c-0.15496,0.01409 -3.65279,5.02259 -4,5.5c-1.02924,1.41521 -4.3182,3.53307 -5.5,4.5c-2.11856,1.73336 -3.24458,3.24458 -5,5c-3.19148,3.19148 -0.82363,2.13373 -1.46875,4.34375c-0.78444,-1.30966 -1.5835,-2.57618 -2.03125,-3.34375c-0.81634,-1.39943 -0.81134,-1.08178 -1.5,-2c-0.76158,-1.01544 1,-2.33333 1.5,-3.5c1.3364,-3.11827 1.64122,-2.11014 3.5,-4.5c1.34102,-1.72417 2.27422,-2.59911 3.5,-4c0.66541,-0.76047 -1.4369,-3.59224 -2,-5c-0.43966,-1.09916 -2.78577,-1.59187 -3.5,-2c-1.90333,-1.08761 0.66667,-4.33333 1,-6.5c0.74781,-4.86076 2.29045,0.76348 3,1c4.64399,1.548 1.11401,-0.12378 4.5,-0.5c2.09,-0.23222 2.63935,-4.14755 3.5,-5.5c1.29624,-2.03694 2.67623,-3.34529 4,-5c1.13845,-1.42306 1.43075,-2.8615 2.5,-5c0.46669,-0.93337 -0.87196,-5.23175 -1,-6c-0.56546,-3.39277 -1.50378,-3.00755 -2.5,-5c-0.77503,-1.55006 -5.49777,0 -6,0c-2.55127,0 -2.52962,3.61374 -3.5,5c-1.56091,2.22987 -4.77252,1.98855 -6,2.5c-1.58585,0.66077 -2.18034,-0.81763 -4,-1.5c-1.52483,-0.57181 -3.68826,-2.01178 -5.5,-3c-2.91183,-1.58827 -2.09481,-2.09481 -4.5,-4.5c-1.67559,-1.67559 -3.99147,-1.66311 -6,-2.5c-3.56028,-1.48345 -1.83965,2.75948 -3,4.5c-1.28897,1.93345 -3.25441,3.25441 -4,4c-0.60093,0.60093 -1.66667,0.33333 -2.5,0.5c-2.14959,0.42992 0.66667,-4.33333 1,-6.5c0.29278,-1.90309 -3.20874,-3.20874 -4,-4c-1.67201,-1.67201 -4.08583,0 -6,0c-2.33571,0 -5.05689,0.67425 -7.5,1c-1.98933,0.26524 3,-2.66667 4.5,-4c2.42298,-2.15376 0,-2.80102 0,-4.5l0,-6c0,-3.05096 -2.22278,-1.33366 -2.5,-1.5c-1.59784,-0.95871 -1.66667,3.33333 -2.5,5c-0.77817,1.55635 -3.33333,1 -5,1.5c-1.28704,0.38611 -2.66667,-0.33333 -4,-0.5c-0.16538,-0.02067 -0.33333,0 -0.5,0c-1.83547,0 0.35638,-0.14255 2.5,-1c2.49113,-0.99645 3.53802,-3.53802 5,-5c1.80686,-1.80686 2.78622,-2.16706 4.5,-3.5c1.13171,-0.88022 2.33333,-1.66667 3.5,-2.5c1.2976,-1.9464 0.33333,-4.66667 0.5,-7c0.22029,-3.08407 -0.85432,-2.84774 -1.5,-5c-0.61651,-2.05503 -4.51008,-1.8792 -6,-2.5c-2.00685,-0.83619 -6.35212,0 -7,0c-2.64121,0 -3.12172,-2.49737 -5,-4c-2.82106,-2.25685 -2.19408,0 -5,0c-1.899,0 -2.70136,3.85908 -3.5,5c-2.43745,3.48207 -1.40236,0.80135 -3.5,2c-0.49656,0.28375 -5.24727,-3.06091 -6,-3.5c-1.86449,-1.08762 -5.35702,-2.29587 -7,-3c-2.12469,-0.91058 -3.72217,-1.86108 -6,-3c-3.28585,-1.64292 -3.7431,0 -5,0c-1.43372,0 -1.66667,2.33333 -2.5,3.5c-0.15733,0.22026 -5.24232,-3.33602 -5.5,-3.5c-1.4318,-0.91115 -5.25299,-1.21223 -6.5,-1.5c-0.22751,-0.0525 -0.44441,-0.09024 -0.625,-0.09375zm305.0625,113.6875c1.13092,1.93504 -0.91965,-5.78966 0,0zm-312.6875,-98.75c-0.07285,-0.01094 -0.15312,0.00625 -0.25,0.03125c-1.1625,0.3 -4,2.875 -5.5,3.625c-1.86786,0.93393 3.66667,2 5.5,3c1.76188,0.96102 0.33333,-4 0.5,-6c0.075,-0.4125 -0.03145,-0.62344 -0.25,-0.65625zm-10.53125,2.28125c-0.59209,-0.14716 -1.13541,4.27083 -1.71875,5.875c-0.87465,2.40529 0.59996,2.99981 1,5c0.29417,1.47087 3,0 4.5,0c1.34371,0 2.33333,-1.33333 3.5,-2c2.07954,1.1343 -3.66667,-3 -5.5,-4.5c-1.10212,-0.90173 -1,-2.66667 -1.5,-4c-0.08562,-0.22832 -0.19667,-0.35398 -0.28125,-0.375zm272.46875,1.84375c-1.5428,0.11998 -3.21794,0.60349 -3.6875,0.53125c-3.50056,-0.53855 -3.1532,2.45249 -4.5,3.5c-1.02751,0.79917 -1.66667,2 -2.5,3c-3.11763,3.74115 0.75607,1.89017 1,2.5c0.64624,1.6156 3.33333,1 5,1.5c1.15605,0.34681 2.03355,1.21629 2.9375,2.0625c-0.9789,0.04025 -2.71875,2.625 -3.9375,3.4375c-1.18484,0.78989 -2.66667,-1 -4,-1.5c-1.72443,-0.64666 -3.19375,2.79453 -4,3.5c-1.28133,1.12116 2.24363,4.48727 2.5,5l2.5,5c1.06063,2.12126 -2.81067,2.81067 -3.5,3.5c-1.45774,1.45774 1,4 1.5,6c1.05151,4.20603 1.24851,1.42686 3.5,4c0.27709,0.31668 5.78833,1.78103 6.5,2c4.89918,1.50744 2.26314,-1.76022 4.5,-3.5c1.53986,-1.19767 1.33333,-3.66667 2,-5.5c4.92851,-3.30891 5.5938,-2.96527 8.5,-0.5c1.71273,0.73403 -0.66667,3.66667 -1,5.5c-0.33333,1.83333 4.97237,1.11776 5.8125,-0.5625c0.44225,-0.73708 3.03047,-3.24907 3.1875,-3.4375c0.42899,-0.51478 -1.73112,-4.76059 -2,-5.5c-0.41969,-1.15415 -3.84082,-3.41406 -4.5,-4c-2.08079,-1.84959 -2.20949,-3.15642 -3.5,-5c-2.04594,-2.92278 2.35904,-4.71808 3,-6c1.70592,-3.41184 -2.58783,-3.6969 -3.5,-5c-0.2018,-0.28829 -4.36995,-0.79454 -5.5,-1c-3.65145,-0.6639 -2.24848,-1.68636 -4,-3c-1.33998,-1.00499 0.33333,-3.33333 0.5,-5c0.14077,-1.40768 -1.2697,-1.65123 -2.8125,-1.53125zm-255.875,12.125c-0.07913,-0.00418 -0.17102,0.00973 -0.25,0.03125c-1.36898,0.37298 -2.74323,4.05573 -3.0625,4.375c-1.78474,1.78474 0.93113,1.62948 2,3.5c1.07814,1.88675 3.66667,-2.33333 5.5,-3.5c1.77169,0 -2.33333,-2.66667 -3.5,-4c-0.22631,-0.25864 -0.45012,-0.39371 -0.6875,-0.40625zm254.71875,1.5c0.15467,0.13315 0.3078,0.28554 0.46875,0.40625c2.28186,1.7114 1.50477,1.71974 3.5,4c1.3107,1.49794 0.78257,4.30411 1,5.5c0.34769,1.9123 -2,-3.33333 -3,-5c-1.27079,-2.11798 -1.87793,-4.58524 -1.96875,-4.90625zm-244.8125,3.90625c-1.12658,0.24476 1.65625,3.4375 2.28125,5c0.60494,1.51235 1.7347,-2.14022 2.6875,-3.96875c-0.53367,0.02223 -1.52462,-0.24655 -2.53125,-0.53125l2.84375,0c0.56626,-0.84938 -1.65679,-0.23503 -3,-0.0625c-0.75918,-0.21406 -1.49246,-0.38675 -2,-0.4375c-0.11163,-0.01116 -0.20614,-0.01632 -0.28125,0zm5.28125,0.5c-0.09648,0.14472 -0.21076,0.336 -0.3125,0.53125c0.35872,-0.01494 0.53751,-0.13747 0.3125,-0.53125zm117.25,-0.25c-1.21501,0.10486 -2.91387,1.87839 -3.75,2.25c-1.9034,0.84596 -1.00211,4.00844 -1.5,6c-0.11295,0.45182 4.2711,2.37283 4.5,2.5c0.99552,0.55307 2.72623,4.99809 3,5.5c0.89229,1.63586 0.66667,-3.66667 1,-5.5c0.08606,-0.47334 3.23678,-0.38394 5.09375,-0.5c3.45016,-2.58762 -2.15128,-4.11506 -3.09375,-6c-1.07492,-2.14983 -2.92731,-2.60205 -4.5,-4c-0.21187,-0.18833 -0.46961,-0.2742 -0.75,-0.25zm151.5625,34.46875c-1.19485,0.11117 -2.03435,1.9926 -2.65625,2.21875c-2.10758,1.14993 -1.98242,9.78059 0.46875,7.0625c1.07703,1.43604 1.33333,3.33333 2,5c0.78784,1.9696 1.875,-3 3.375,-4.5c2.20395,-2.20395 1.71328,1.46852 3.5,3c1.99984,1.71415 -1.36089,4.98992 -1.5,5.5c-0.5,1.83333 -3.66667,-1 -5.5,-1.5c-0.78945,-0.2153 0.94405,5.66429 1,6c0.37739,2.26433 3.70654,2.59458 5,3.5c1.0743,0.75201 5.73636,-0.81948 7,-1c4.6553,-0.66504 1.68466,-1.26349 4,-3c0.07252,-0.05439 1.42005,-6.15357 1.5,-6.5c2.0391,-0.37075 -5.00066,-5.45526 -5.5,-6c-0.96223,-1.04971 -2.66667,-1 -4,-1.5c-1.13094,-0.3621 -1.91161,-2.1847 -3.5,-4c-1.59705,-1.8252 -2.52938,-2.34188 -3.875,-3.6875c-0.48531,-0.48531 -0.91422,-0.63081 -1.3125,-0.59375zm-165.8125,45.5625c0.81322,2.4055 0.94527,4.33396 -1,6.21875c-0.05193,0.06924 -0.10349,0.12615 -0.15625,0.1875c0.22549,-0.81114 0.3826,-1.72044 1.15625,-2.6875c0.63069,-0.78836 0.39484,-2.33532 0,-3.71875zm-260.21875,296.125c0.03987,0.00165 0.08484,-0.00298 0.125,0l0,0.03125c-0.038,-0.00896 -0.08333,-0.02571 -0.125,-0.03125zm0.0625,71.53125l0.15625,0.0625c0.62516,0.26048 1.00232,0.36156 1.28125,0.375l0,0.46875c-0.53438,-0.18523 -0.96197,-0.55653 -1.4375,-0.90625z"/>
  </g>
  <ellipse stroke="#000" ry="8.5" rx="8.5" id="svg_2" cy="359.78888" cx="444.940124" stroke-width="1.5" fill="#e20074"/>
  <ellipse stroke="#000" ry="8.5" rx="8.5" id="svg_8" cy="459.159013" cx="188.088084" stroke-width="1.5" fill="#e20074"/>
  <ellipse stroke="#000" ry="8.5" rx="8.5" id="svg_3" cy="411.380883" cx="196.977038" stroke-width="1.5" fill="#e20074"/>
  <ellipse stroke="#000" ry="8.5" rx="8.5" id="svg_1" cy="403.23317" cx="115.680784" stroke-width="1.5" fill="#e20074"/>
  <text xml:space="preserve" text-anchor="start" font-family="'Montserrat', sans-serif" font-size="15" id="svg_6" y="388.733523" x="415.941265" stroke-width="0" stroke="#e20074" fill="rgba(255,255,255,0.5)">Dresden</text>
  <text xml:space="preserve" text-anchor="start" font-family="'Montserrat', sans-serif" font-size="15" id="svg_9" y="490.956502" x="151.494882" stroke-width="0" stroke="#e20074" fill="rgba(255,255,255,0.5)">Wiesbaden</text>
  <text xml:space="preserve" text-anchor="start" font-family="'Montserrat', sans-serif" font-size="15" id="svg_7" y="434.289417" x="168.161676" stroke-width="0" stroke="#e20074" fill="rgba(255,255,255,0.5)">Marburg</text>
  <text xml:space="preserve" text-anchor="start" font-family="'Montserrat', sans-serif" font-size="15" id="svg_4" y="432.067179" x="99.272274" stroke-width="0" stroke="#e20074" fill="rgba(255,255,255,0.5)">Köln</text>
 </g>
</svg>