<svg width="512" height="512" xmlns="http://www.w3.org/2000/svg">

 <g>
  <title>background</title>
  <rect fill="none" id="canvas_background" height="402" width="582" y="-1" x="-1"/>
 </g>
 <g>
  <title>Layer 1</title>
  <g id="svg_1">
   <path id="svg_2" d="m0,207c0,29.781 20.438,54.594 48,61.75l0,210.25l-32,0c-8.813,0 -16,7.156 -16,16s7.188,16 16,16l480,0c8.875,0 16,-7.156 16,-16s-7.125,-16 -16,-16l-32,0l0,-210.25c27.562,-7.156 48,-31.969 48,-61.75l0,-16l-512,0l0,16zm320,64c35.375,0 64,-28.656 64,-64c0,29.781 20.438,54.594 48,61.75l0,210.25l-240,0l0,-208c35.375,0 64,-28.656 64,-64c0,35.344 28.688,64 64,64zm-144,-2.25l0,210.25l-96,0l0,-210.25c27.563,-7.156 48,-31.969 48,-61.75c0,29.781 20.438,54.594 48,61.75zm272,-221.75l-384,0l-64,128l512,0l-64,-128zm-312.812,35.563l-32,64c-1.438,2.813 -4.25,4.438 -7.188,4.438c-1.188,0 -2.406,-0.25 -3.563,-0.844c-3.938,-1.969 -5.563,-6.781 -3.563,-10.719l32,-64c2,-3.938 6.781,-5.531 10.719,-3.594c3.97,1.969 5.532,6.781 3.595,10.719zm64,0l-32,64c-1.438,2.813 -4.25,4.438 -7.188,4.438c-1.188,0 -2.406,-0.25 -3.563,-0.844c-3.938,-1.969 -5.563,-6.781 -3.563,-10.719l32,-64c2,-3.938 6.813,-5.531 10.719,-3.594c3.97,1.969 5.532,6.781 3.595,10.719zm64.812,60.437c0,4.438 -3.562,8 -8,8c-4.406,0 -8,-3.563 -8,-8l0,-64c0,-4.438 3.594,-8 8,-8c4.438,0 8,3.563 8,8l0,64zm91.875,7c-1.25,0.688 -2.562,1 -3.875,1c-2.812,0 -5.562,-1.5 -7,-4.156l-35,-64c-2.125,-3.875 -0.688,-8.75 3.188,-10.844c3.813,-2.125 8.75,-0.75 10.875,3.156l35,64c2.062,3.875 0.687,8.75 -3.188,10.844zm63.687,0.156c-1.124,0.594 -2.312,0.844 -3.562,0.844c-2.938,0 -5.75,-1.625 -7.125,-4.438l-32,-64c-2,-3.938 -0.375,-8.75 3.562,-10.719c3.875,-1.969 8.75,-0.375 10.75,3.594l32,64c1.938,3.938 0.375,8.751 -3.625,10.719zm-283.562,235.282l0,-36.875c-4.688,-2.812 -8,-7.688 -8,-13.562c0,-8.844 7.188,-16 16,-16c8.875,0 16,7.156 16,16c0,5.875 -3.281,10.75 -8,13.562l0,36.875c4.719,2.813 8,7.688 8,13.563c0,8.844 -7.125,16 -16,16c-8.813,0 -16,-7.156 -16,-16c0,-5.876 3.313,-10.751 8,-13.563zm-72,-370.438c0,-8.844 7.188,-16 16,-16l352,0c8.875,0 16,7.156 16,16s-7.125,16 -16,16l-352,0c-8.812,0 -16,-7.156 -16,-16z"/>
  </g>
  <g id="svg_3"/>
  <g id="svg_4"/>
  <g id="svg_5"/>
  <g id="svg_6"/>
  <g id="svg_7"/>
  <g id="svg_8"/>
  <g id="svg_9"/>
  <g id="svg_10"/>
  <g id="svg_11"/>
  <g id="svg_12"/>
  <g id="svg_13"/>
  <g id="svg_14"/>
  <g id="svg_15"/>
  <g id="svg_16"/>
  <g id="svg_17"/>
  <metadata transform="matrix(0.3489590592085392,0,0,0.3489590592085392,0,0) " id="svg_26">image/svg+xml</metadata>

  <g id="svg_28">
   <g transform="matrix(0.3489590592085392,0,0,0.3489590592085392,0,0) " id="svg_24">
    <path fill="#e2007a" fill-rule="nonzero" id="svg_25" d="m1021.180228,1043.189316l28.82473,0l0,28.82473l-28.82473,0l0,-28.82473zm-86.46935,0l28.8199,0l0,28.82473l-28.8199,0l0,-28.82473zm-86.47418,0l28.82473,0l0,28.82473l-28.82473,0l0,-28.82473zm-18.34804,46.24869c0,9.14413 1.33452,15.07963 4.0132,17.81612c2.26435,2.3318 6.12337,3.7675 11.53374,4.30227c1.60433,0.13497 4.35527,0.19734 8.2384,0.19734l0,8.01195l-69.453,0l0,-8.01195c5.57898,0 9.68853,-0.26479 12.34796,-0.79976c5.38143,-1.13217 8.77315,-4.26854 10.16548,-9.40909c0.72749,-2.66425 1.09846,-6.70153 1.09846,-12.10706l0,-104.72395c-11.78427,0.33263 -21.00065,4.23482 -27.65401,11.71201c-6.32091,7.15437 -10.17513,18.10518 -11.5771,32.85719l-7.50609,-1.29598l1.39715,-50.08554l112.90929,0l1.40196,50.08554l-7.51573,1.29598c-1.39713,-14.75201 -5.28508,-25.70282 -11.63008,-32.85719c-6.68706,-7.47719 -15.94681,-11.37957 -27.76963,-11.71201l0,104.72395l0,0.00018zm-68.6561,-46.24869l28.82473,0l0,28.82473l-28.82473,0l0,-28.82473z"/>
   </g>
  </g>
 </g>
</svg>